<svg id="Layer_1" data-name="Layer 1" xmlns="http://www.w3.org/2000/svg" viewBox="0 0 489.55 489.55"><title>icon</title><path d="M484.08,231.27c-63.5-70.8-148.8-110.3-239.3-110.3S69,160.47,5.48,231.27a19.38,19.38,0,0,0,0,27c63.5,70.81,148.8,110.31,239.3,110.31s175.8-38.5,239.3-110.3A19.39,19.39,0,0,0,484.08,231.27ZM244.77,304.08c-32.3,0-59.3-27-59.3-59.3s27-59.3,59.3-59.3,59.3,27,59.3,59.3S277.08,304.08,244.77,304.08ZM178.88,169.77a99.72,99.72,0,0,0,0,150c-47.9-12.2-92.31-37.6-129.7-75C86.57,207.38,131,181.88,178.88,169.77Zm131.79,150a99.72,99.72,0,0,0,0-150c47.9,12.2,92.3,37.61,129.71,75C403,282.17,358.58,307.67,310.67,319.77Z"/></svg>