<?xml version="1.0" encoding="utf-8"?>
<!-- Generator: Adobe Illustrator 24.0.0, SVG Export Plug-In . SVG Version: 6.00 Build 0)  -->
<svg version="1.1" id="Ebene_1" xmlns="http://www.w3.org/2000/svg" xmlns:xlink="http://www.w3.org/1999/xlink" x="0px" y="0px"
	 viewBox="0 0 457 374.67" style="enable-background:new 0 0 457 374.67;" xml:space="preserve">
<style type="text/css">
	.st0{fill:#FFFFFF;}
</style>
<g>
	<path d="M431.91,189.3c-13.41,0-26.24,0.01-39.06,0c-7.15-0.01-12.7-5.49-12.73-12.74c-0.06-12.83-0.02-25.65-0.02-39.26
		c-1.77,0-3.35,0-4.93,0c-29.17,0-58.34-0.01-87.52,0c-6.9,0-9.58,2.66-9.58,9.53c-0.01,29.5,0,59-0.01,88.51
		c0,6.34-2.39,9.44-7.39,9.64c-4.96,0.2-8.6-3.9-8.6-9.81c-0.02-30.5,0-61-0.01-91.51c-0.01-11.54,10.9-22.66,22.66-22.51
		c34.17,0.42,68.34,0.2,102.52,0.09c3.78-0.01,6.56,1.16,9.19,3.82c16.19,16.34,32.6,32.46,48.62,48.96
		c2.24,2.31,3.88,6.28,3.89,9.5c0.24,53.17,0.24,106.34,0.12,159.51c-0.03,13.4-10.3,24.52-24.47,24.42
		c-46.34-0.31-92.68-0.22-139.02-0.05c-12.95,0.05-23.79-10.62-23.57-23.61c0.25-15,0.05-30,0.06-45c0-5.55,2.71-8.44,7.85-8.46
		c5.46-0.03,8.14,2.81,8.14,8.67c0.01,14.33-0.01,28.67,0.01,43c0.01,6.58,2.73,9.32,9.28,9.33c45.51,0.01,91.02,0.01,136.53,0
		c5.14,0,8.21-2.79,8.22-7.58c0.02-50.5,0.01-101.01,0-151.51C432.1,191.42,432,190.62,431.91,189.3z M396.38,150.05
		c0,7.7,0,15.26,0,22.87c7.9,0,15.53,0,22.71,0C411.57,165.35,404.04,157.76,396.38,150.05z"/>
	<path d="M124.04,137.29c-32.25,0-63.74-0.01-95.23,0.01c-4.35,0-5.76,3.23-6.73,6.67c-0.31,1.08-0.07,2.32-0.07,3.49
		c0,64.49,0,128.98,0,193.47c0,7.97,2.38,10.39,10.21,10.39c44.83,0,89.66,0,134.49,0c7.69,0,9.33-1.62,9.33-9.21
		c0.01-14-0.03-28,0.02-41.99c0.02-6.46,2.86-9.69,8.43-9.81c5.16-0.11,8.44,2.88,8.5,8.55c0.16,15.33,0.65,30.69-0.13,45.98
		c-0.66,12.74-10.43,22.62-24.16,22.56c-46.5-0.21-92.99-0.08-139.49-0.08c-13.1,0-23.2-10.21-23.21-23.43
		c0-66.49-0.01-132.98,0-199.46c0-12.84,10.22-23.13,23-23.13c34-0.01,68,0.04,101.99-0.06c3.73-0.01,6.58,0.99,9.25,3.68
		c16.3,16.46,32.81,32.71,48.98,49.29c2.06,2.11,3.59,5.68,3.65,8.61c0.34,17.32,0.37,34.66-0.04,51.98
		c-0.07,2.91-2.13,6.74-4.49,8.34c-2,1.35-6.86,1.24-8.49-0.3c-2.24-2.12-3.57-6.17-3.66-9.43c-0.37-14.47-0.16-28.95-0.16-44.11
		c-4.2,0-8.13,0-12.06,0c-9.17,0-18.33,0.07-27.5-0.02c-6.9-0.07-12.4-5.61-12.43-12.54C123.99,163.77,124.04,150.81,124.04,137.29z
		 M162.6,173.18c-7.45-7.45-15.05-15.05-22.18-22.19c0,6.76,0,14.42,0,22.19C148.23,173.18,155.68,173.18,162.6,173.18z"/>
	<path d="M337.07,257.98c-1.88-1.61-3.88-3.11-5.63-4.86c-4.25-4.23-4.39-8.24-0.59-12.03c2.6-2.6,8.71-2.62,11.8,0.35
		c6.59,6.36,13.22,12.71,19.37,19.49c3.25,3.58,4.25,8.01-0.37,12.42c-6.63,6.32-12.99,12.92-19.48,19.39
		c-3.17,3.16-8.21,3.66-11.02,1.14c-3.82-3.42-4.23-8.47-0.81-12.26c1.67-1.84,3.66-3.39,5.21-6.32c-1.83,0-3.66,0-5.49,0
		c-75.97,0-151.94-0.01-227.91,0.02c-4.3,0-8.12-0.57-10.15-5.1c-2.36-5.27,0.65-10.48,6.47-10.9c1.33-0.1,2.66-0.02,4-0.02
		c76.14,0,152.27,0,228.41,0c1.8,0,3.61,0,5.41,0C336.54,258.87,336.81,258.43,337.07,257.98z"/>
	<path class="st0" d="M396.38,150.05c7.66,7.71,15.19,15.3,22.71,22.87c-7.18,0-14.81,0-22.71,0
		C396.38,165.31,396.38,157.75,396.38,150.05z"/>
	<path class="st0" d="M162.6,173.18c-6.92,0-14.36,0-22.18,0c0-7.77,0-15.43,0-22.19C147.54,158.13,155.15,165.73,162.6,173.18z"/>
</g>
</svg>
