<?xml version="1.0" encoding="utf-8"?>
<!-- Generator: Adobe Illustrator 24.0.0, SVG Export Plug-In . SVG Version: 6.00 Build 0)  -->
<svg version="1.1" id="Ebene_1" xmlns="http://www.w3.org/2000/svg" xmlns:xlink="http://www.w3.org/1999/xlink" x="0px" y="0px"
	 viewBox="0 0 512 708.66" style="enable-background:new 0 0 512 708.66;" xml:space="preserve">
<style type="text/css">
	.st0{stroke:#000000;stroke-width:5;stroke-miterlimit:10;}
</style>
<title>Icon</title>
<g id="Locked">
	<path class="st0" d="M405.33,443.66V341.99c0-82.33-66.98-149.33-149.33-149.33s-149.33,67-149.33,149.33v96
		c-0.18,5.89,4.45,7.81,10.34,7.99c5.89,0.18,10.81-1.45,10.99-7.34c0.01-0.22,0.01-0.44,0-0.65v-96c0-70.69,57.31-128,128-128
		s128,57.31,128,128v91h-21.33v-91c0-58.91-47.76-106.67-106.67-106.67s-106.67,47.76-106.67,106.67v96c0,5.89,4.77,7.67,10.66,7.68
		c5.89,0,10.67-1.77,10.68-7.66c0,0,0-0.01,0-0.01v-96c0-47.13,38.2-85.33,85.33-85.33s85.33,38.2,85.33,85.33v101.67"/>
	<path class="st0" d="M394.67,427.33H117.33c-17.67,0-32,14.33-32,32v192c0.04,29.44,23.9,53.29,53.34,53.33h234.66
		c29.44-0.04,53.3-23.89,53.34-53.33v-192C426.67,441.66,412.34,427.33,394.67,427.33z M405.33,651.33c0,17.67-14.33,32-32,32
		H138.67c-17.67,0-32-14.33-32-32v-192c0-5.89,4.77-10.66,10.66-10.67h277.34c5.89,0.01,10.66,4.78,10.66,10.67V651.33
		L405.33,651.33z"/>
	<path class="st0" d="M284.8,565.35c8.86-8.01,13.91-19.41,13.87-31.36c0-23.57-19.11-42.67-42.67-42.67
		c-23.56,0-42.66,19.1-42.67,42.67c-0.04,11.94,5,23.34,13.87,31.34l-13.31,39.94c-1.88,5.58,1.12,11.63,6.7,13.5
		c1.1,0.37,2.25,0.56,3.41,0.56h64c5.88,0.01,10.65-4.75,10.65-10.63c0-1.15-0.18-2.29-0.54-3.37L284.8,565.35z M262.12,564.8
		l11.07,33.19h-34.38l11.07-33.19c1.58-4.76-0.36-9.97-4.67-12.54c-10.16-5.96-13.57-19.03-7.61-29.19s19.03-13.57,29.19-7.61
		c10.16,5.96,13.57,19.03,7.61,29.19c-1.84,3.15-4.46,5.77-7.61,7.61C262.47,554.82,260.52,560.04,262.12,564.8z"/>
</g>
</svg>
