<svg id="Layer_1" data-name="Layer 1" xmlns="http://www.w3.org/2000/svg" viewBox="0 0 489.55 489.55"><title>icon</title><path d="M102.6,333.92,133,303.54a288.69,288.69,0,0,1-83.8-58.77c37.39-37.39,81.8-62.89,129.69-75a99.84,99.84,0,0,0-26.1,114l33-33a59,59,0,0,1-.3-6c0-32.31,27-59.31,59.3-59.31a59,59,0,0,1,6,.31l58.08-58.08a307.81,307.81,0,0,0-64-6.73c-90.5,0-175.8,39.5-239.3,110.3-7.3,7.31-7.3,19.81,0,27A339.57,339.57,0,0,0,102.6,333.92Z"/><path d="M484.07,231.27a339.68,339.68,0,0,0-96.82-75.48l-30.37,30.37a288.71,288.71,0,0,1,83.49,58.61c-37.39,37.4-81.8,62.9-129.7,75a99.85,99.85,0,0,0,26.24-113.65L303.8,239.24c.18,1.82.27,3.67.27,5.54,0,32.3-27,59.3-59.29,59.3-1.87,0-3.72-.1-5.54-.28L181.1,361.93a307.8,307.8,0,0,0,63.68,6.65c90.5,0,175.79-38.5,239.29-110.3A19.39,19.39,0,0,0,484.07,231.27Z"/><path d="M428.4,61.37c-8.38-7.69-21.39-8.3-29.69,0L365.05,95l-80.46,80.46L187.28,272.8l-84.46,84.46c-13.65,13.65-27.69,27-41,41l-.56.56c-7.78,7.78-8.36,22,0,29.7s21.4,8.3,29.7,0l33.66-33.66,80.46-80.46q48.64-48.66,97.31-97.31,42.23-42.22,84.46-84.46c13.65-13.65,27.68-27,41-41,.19-.19.38-.37.56-.56C436.18,83.29,436.76,69.05,428.4,61.37Z"/></svg>